<?xml version="1.0" standalone="no"?>
<!DOCTYPE svg PUBLIC "-//W3C//DTD SVG 20010904//EN"
 "http://www.w3.org/TR/2001/REC-SVG-20010904/DTD/svg10.dtd">
<svg version="1.0" xmlns="http://www.w3.org/2000/svg"
 width="200.000000pt" height="200.000000pt" viewBox="0 0 200.000000 200.000000"
 preserveAspectRatio="xMidYMid meet">
<metadata>
Created by potrace 1.14, written by Peter Selinger 2001-2017
</metadata>
<g transform="translate(0.000000,200.000000) scale(0.100000,-0.100000)"
fill="#000000" stroke="none">
<path d="M648 1558 c-67 -39 -72 -110 -11 -158 59 -47 173 -5 173 65 0 88 -87
138 -162 93z"/>
<path d="M690 1330 c0 -12 12 -26 30 -35 75 -39 104 -106 76 -178 -16 -44
-110 -167 -126 -167 -5 0 -12 11 -16 25 -8 34 17 70 61 86 19 7 35 19 35 26 0
19 -48 16 -95 -6 -96 -44 -126 -129 -70 -195 14 -16 25 -30 25 -31 0 -1 -10
-21 -22 -46 -64 -131 -7 -259 147 -330 43 -19 55 -17 55 10 0 11 -21 31 -52
51 l-53 32 60 27 c126 57 147 129 63 217 l-30 32 50 63 c69 89 92 138 92 199
0 93 -50 169 -142 216 -59 30 -88 31 -88 4z m69 -617 c8 -16 8 -28 0 -46 -11
-24 -57 -57 -79 -57 -18 0 -8 99 14 132 17 26 19 26 36 10 9 -9 22 -27 29 -39z"/>
<path d="M930 1040 c0 -5 7 -10 15 -10 8 0 15 -1 15 -3 0 -2 -16 -47 -35 -101
-19 -54 -35 -100 -35 -102 0 -2 -9 -4 -20 -4 -11 0 -20 -4 -20 -10 0 -6 29
-10 66 -10 41 0 63 4 59 10 -3 6 -12 10 -20 10 -12 0 -11 8 3 45 15 43 18 45
55 45 63 0 116 40 117 87 0 42 -25 53 -116 53 -49 0 -84 -4 -84 -10z m148 -30
c1 -8 -7 -30 -18 -47 -15 -25 -27 -33 -49 -33 -30 0 -30 0 -17 33 7 17 16 40
19 50 8 22 60 20 65 -3z"/>
<path d="M1180 1040 c0 -5 7 -10 15 -10 12 0 12 -6 1 -42 -35 -115 -59 -168
-77 -168 -10 0 -21 -4 -24 -10 -4 -6 18 -10 59 -10 37 0 66 4 66 10 0 6 -7 10
-16 10 -9 0 -13 6 -10 13 2 6 10 29 17 50 11 32 16 38 38 35 28 -3 30 -14 16
-75 -7 -29 -4 -34 18 -42 27 -10 67 -4 67 10 0 5 -6 9 -14 9 -10 0 -12 11 -8
45 4 35 1 46 -12 51 -13 5 -10 10 16 23 18 9 39 28 47 43 14 24 14 28 -3 47
-17 18 -31 21 -108 21 -52 0 -88 -4 -88 -10z m146 -42 c-7 -39 -30 -58 -67
-58 l-28 0 17 45 c15 41 19 45 50 45 34 0 34 -1 28 -32z"/>
<path d="M1450 1040 c0 -5 8 -10 19 -10 16 0 15 -9 -18 -102 -30 -86 -40 -104
-59 -106 -12 -2 -22 -8 -22 -13 0 -5 49 -9 111 -9 l110 0 15 35 c23 55 17 62
-20 22 -29 -32 -39 -37 -79 -37 l-46 0 20 49 c17 40 24 48 41 43 13 -3 18 -11
15 -23 -3 -11 0 -19 8 -19 6 0 21 25 32 55 14 36 17 55 9 55 -6 0 -16 -8 -23
-19 -11 -17 -53 -36 -53 -23 0 4 7 26 17 50 16 42 17 43 57 40 36 -3 41 -6 44
-30 6 -47 25 -37 37 20 l7 32 -111 0 c-67 0 -111 -4 -111 -10z"/>
<path d="M1700 1040 c0 -5 7 -10 15 -10 12 0 15 -19 15 -113 0 -63 3 -117 7
-120 6 -6 137 165 162 211 7 12 21 22 31 22 11 0 20 5 20 10 0 6 -20 10 -45
10 -25 0 -45 -4 -45 -10 0 -5 7 -10 16 -10 13 0 12 -6 -8 -33 -14 -17 -37 -49
-51 -70 l-25 -37 -4 70 c-3 67 -2 70 20 70 12 0 22 5 22 10 0 6 -28 10 -65 10
-37 0 -65 -4 -65 -10z"/>
<path d="M1344 735 c-4 -8 -17 -15 -30 -15 -13 0 -24 -4 -24 -10 0 -5 7 -10
15 -10 19 0 19 -3 -5 -51 -23 -45 -20 -59 15 -59 29 0 75 20 75 32 0 5 -9 4
-21 -2 -30 -17 -34 -5 -14 40 13 30 24 40 41 40 13 0 26 5 29 10 3 6 -3 10
-14 10 -12 0 -21 7 -21 15 0 8 -9 15 -20 15 -11 0 -23 -7 -26 -15z"/>
<path d="M1687 718 c-16 -6 -30 -20 -33 -35 -8 -29 2 -40 36 -45 36 -4 31 -22
-7 -26 -25 -3 -33 1 -38 19 -7 22 -8 22 -21 4 -22 -30 -16 -40 27 -42 68 -4
126 39 98 73 -6 8 -22 14 -35 14 -13 0 -24 5 -24 10 0 14 44 12 58 -2 10 -10
15 -10 22 2 14 22 12 30 -9 30 -11 0 -25 2 -33 4 -7 3 -25 0 -41 -6z"/>
<path d="M910 707 c-16 -8 -25 -21 -24 -35 0 -12 -5 -22 -11 -22 -7 0 -20 -9
-30 -20 -18 -19 -18 -22 -2 -37 14 -15 22 -16 48 -6 21 8 38 9 50 3 20 -11 69
3 69 20 0 6 -5 8 -11 4 -13 -8 -3 35 12 51 14 15 10 42 -7 49 -25 10 -67 7
-94 -7z m53 -33 c-3 -8 -17 -14 -31 -14 -24 0 -24 1 -8 19 20 22 48 18 39 -5z
m-23 -43 c0 -11 -39 -25 -47 -18 -3 3 -2 10 2 16 8 13 45 15 45 2z"/>
<path d="M1070 704 c0 -8 5 -14 10 -14 6 0 1 -18 -10 -40 -11 -22 -27 -40 -35
-40 -8 0 -15 -4 -15 -10 0 -5 23 -10 50 -10 28 0 50 5 50 10 0 6 -5 10 -10 10
-20 0 21 60 51 76 17 8 33 13 36 11 9 -9 -38 -87 -52 -87 -8 0 -15 -4 -15 -10
0 -5 22 -10 49 -10 28 0 53 5 56 10 3 6 -1 10 -9 10 -13 0 -12 6 4 42 27 61
21 66 -76 67 -66 0 -84 -3 -84 -15z"/>
<path d="M1485 708 c-49 -27 -74 -98 -39 -112 46 -18 120 5 156 48 22 27 22
39 0 59 -21 19 -87 22 -117 5z m75 -18 c0 -22 -31 -70 -51 -81 -45 -24 -46 22
-1 74 16 19 52 23 52 7z"/>
</g>
</svg>
